<?xml version="1.0" encoding="UTF-8"?>
<!DOCTYPE svg PUBLIC "-//W3C//DTD SVG 1.1//EN" "http://www.w3.org/Graphics/SVG/1.1/DTD/svg11.dtd">
<!-- Creator: CorelDRAW X5 -->
<svg xmlns="http://www.w3.org/2000/svg" xml:space="preserve" width="52px" height="48px" style="shape-rendering:geometricPrecision; text-rendering:geometricPrecision; image-rendering:optimizeQuality; fill-rule:evenodd; clip-rule:evenodd"
viewBox="0 0 52 48.0007"
 xmlns:xlink="http://www.w3.org/1999/xlink">
 <defs>
  <style type="text/css">
   <![CDATA[
    .fil1 {fill:#1482BE}
    .fil0 {fill:white}
   ]]>
  </style>
 </defs>
 <g id="Ebene_x0020_1">
  <metadata id="CorelCorpID_0Corel-Layer"/>
  <g id="_194304720">
   <polygon id="_196098320" class="fil0" points="39.2404,20.4216 39.2486,15.3132 51.263,15.3179 51.2547,20.4216 "/>
   <polygon id="_194459560" class="fil1" points="0.737019,20.4216 0.744106,15.3132 12.7596,15.3179 12.7502,20.4216 "/>
   <polygon id="_194459704" class="fil0" points="38.7278,15.3191 26.8433,15.3191 26.8008,46.8137 38.6852,46.8137 "/>
   <path id="_194012248" class="fil0" d="M38.9368 7.4257c-0.0118112,-1.14805 -0.282288,-2.18862 -0.819697,-3.11934 -0.52678,-0.941353 -1.25199,-1.69373 -2.16381,-2.2583 -0.922455,-0.564575 -1.97247,-0.851588 -3.15123,-0.861037 -1.17876,0.00944896 -2.22759,0.296461 -3.13706,0.861037 -0.920093,0.564575 -1.64176,1.31695 -2.16381,2.2583 -0.532685,0.930723 -0.798437,1.97129 -0.805524,3.11934 0.0129923,1.13978 0.283469,2.17917 0.819697,3.12052 0.527961,0.940172 1.25199,1.69373 2.17562,2.25712 0.911825,0.555127 1.96302,0.842139 3.1406,0.862218 1.17876,-0.020079 2.22759,-0.307091 3.14769,-0.862218 0.909463,-0.563394 1.63113,-1.31695 2.15318,-2.25712 0.532685,-0.941353 0.797256,-1.98074 0.804343,-3.12052z"/>
   <polygon id="_194011984" class="fil1" points="25.322,15.3191 13.4376,15.3191 13.3939,46.8137 25.2783,46.8137 "/>
   <path id="_194531000" class="fil1" d="M25.074 7.53791c-0.0129923,-1.14805 -0.282288,-2.18862 -0.819697,-3.11934 -0.52678,-0.941353 -1.25199,-1.69373 -2.16381,-2.2583 -0.922455,-0.564575 -1.97365,-0.851588 -3.15241,-0.861037 -1.17758,0.00944896 -2.22759,0.296461 -3.13706,0.861037 -0.920093,0.564575 -1.64058,1.31695 -2.16381,2.2583 -0.532685,0.930723 -0.797256,1.97129 -0.804343,3.11934 0.0129923,1.13978 0.282288,2.17917 0.819697,3.12052 0.52678,0.940172 1.25199,1.69373 2.17444,2.25712 0.913006,0.555127 1.96302,0.842139 3.14178,0.862218 1.17876,-0.020079 2.22759,-0.307091 3.1465,-0.862218 0.910644,-0.563394 1.63113,-1.31695 2.15436,-2.25712 0.532685,-0.941353 0.797256,-1.98074 0.804343,-3.12052z"/>
  </g>
 </g>
</svg>
