<?xml version="1.0" encoding="UTF-8"?>
<!DOCTYPE svg PUBLIC "-//W3C//DTD SVG 1.1//EN" "http://www.w3.org/Graphics/SVG/1.1/DTD/svg11.dtd">
<!-- Creator: CorelDRAW X5 -->
<svg xmlns="http://www.w3.org/2000/svg" xml:space="preserve" width="300px" height="80px" style="shape-rendering:geometricPrecision; text-rendering:geometricPrecision; image-rendering:optimizeQuality; fill-rule:evenodd; clip-rule:evenodd"
viewBox="0 0 300 79.9984"
 xmlns:xlink="http://www.w3.org/1999/xlink">
 <defs>
  <style type="text/css">
   <![CDATA[
    .fil1 {fill:#1482BE}
    .fil0 {fill:white}
   ]]>
  </style>
 </defs>
 <g id="Ebene_x0020_1">
  <metadata id="CorelCorpID_0Corel-Layer"/>
  <polygon class="fil0" points="64.3512,33.9969 64.3642,25.7268 83.8146,25.735 83.8004,33.9969 "/>
  <polygon class="fil1" points="2.0185,33.9969 2.03031,25.7268 21.4807,25.735 21.4677,33.9969 "/>
  <polygon class="fil0" points="63.522,25.7362 44.2819,25.7362 44.2122,76.722 63.4512,76.722 "/>
  <path class="fil0" d="M63.8598 12.9579c-0.0200787,-1.85906 -0.457087,-3.54331 -1.32638,-5.05039 -0.853937,-1.52362 -2.02677,-2.74134 -3.50315,-3.65551 -1.49291,-0.914173 -3.19488,-1.37835 -5.10236,-1.39488 -1.90748,0.0165354 -3.60591,0.480709 -5.07874,1.39488 -1.48937,0.914173 -2.65748,2.13189 -3.50315,3.65551 -0.862205,1.50709 -1.29094,3.19134 -1.30276,5.05039 0.0200787,1.84488 0.457087,3.52795 1.32638,5.05157 0.853937,1.52244 2.02677,2.74134 3.52087,3.65433 1.47756,0.897638 3.17835,1.36417 5.08583,1.39606 1.90748,-0.0318898 3.60709,-0.498425 5.09528,-1.39606 1.47283,-0.912992 2.63976,-2.13189 3.48661,-3.65433 0.862205,-1.52362 1.29094,-3.20669 1.30157,-5.05157z"/>
  <polygon class="fil1" points="41.8193,25.7362 22.5791,25.7362 22.5094,76.722 41.7484,76.722 "/>
  <path class="fil1" d="M41.4165 13.1398c-0.0200787,-1.86024 -0.457087,-3.54331 -1.32638,-5.05039 -0.852756,-1.52362 -2.02677,-2.74134 -3.50315,-3.65669 -1.49291,-0.912992 -3.1937,-1.37717 -5.10236,-1.3937 -1.90748,0.0165354 -3.60591,0.480709 -5.07874,1.3937 -1.48937,0.915354 -2.6563,2.13307 -3.50315,3.65669 -0.862205,1.50709 -1.29094,3.19016 -1.30276,5.05039 0.0212598,1.84488 0.458268,3.52677 1.32756,5.05039 0.852756,1.52244 2.02677,2.74252 3.52087,3.65551 1.47638,0.897638 3.17717,1.36299 5.08465,1.39488 1.90866,-0.0318898 3.60709,-0.497244 5.09528,-1.39488 1.47283,-0.912992 2.63976,-2.13307 3.48661,-3.65551 0.862205,-1.52362 1.29094,-3.20551 1.30157,-5.05039z"/>
  <g id="_194260376">
   <path id="_195633112" class="fil0" d="M158.616 60.8563c-0.0165354,-0.967323 -0.0874016,-1.98898 -0.312992,-2.9126 -0.145276,-0.609449 -0.380315,-1.34291 -0.787795,-1.84134 -0.284646,-0.350787 -0.63189,-0.636614 -1.07244,-0.785433 -0.441732,-0.153543 -0.909449,-0.204331 -1.37598,-0.199606 -0.535039,0.0023622 -1.0878,0.057874 -1.58858,0.243307 -0.470079,0.174803 -0.837402,0.483071 -1.13976,0.869291 -0.409843,0.523228 -0.660236,1.23189 -0.816142,1.8626 -0.218504,0.882283 -0.311811,1.83898 -0.354331,2.76378l7.44803 0zm26.4697 -3.41693l0 15.8587 -4.54961 0 0 -21.3402 3.50551 0 0.687402 2.15669c0.175984,-0.134646 0.35315,-0.262205 0.531496,-0.390945 0.517323,-0.368504 1.07008,-0.688583 1.63465,-0.983858 0.655512,-0.340157 1.34646,-0.607087 2.05748,-0.818504 0.765354,-0.227953 1.55669,-0.341339 2.35748,-0.347244 0.864567,-0.00708661 1.73031,0.080315 2.56535,0.304724 0.784252,0.212598 1.49528,0.565748 2.10827,1.08543 0.65315,0.553937 1.09724,1.28268 1.39724,2.06102 0.370866,0.970866 0.483071,2.06575 0.483071,3.09567l0 15.1772 -4.55197 0 0 -15.3307c0,-0.442913 -0.0472441,-0.982677 -0.256299,-1.38661 -0.134646,-0.261024 -0.320079,-0.499606 -0.590551,-0.640157 -0.287008,-0.151181 -0.591732,-0.242126 -0.914173,-0.275197 -0.382677,-0.0401575 -0.765354,-0.0531496 -1.14803,-0.0484252 -0.92126,0.00826772 -1.82835,0.206693 -2.68701,0.516142 -0.927165,0.334252 -1.80709,0.779528 -2.63031,1.3063zm-12.835 0.00944882l0 15.8492 -4.54961 0 0 -21.3402 3.62953 0 0.354331 1.8437c0.113386,-0.152362 0.230315,-0.302362 0.356693,-0.448819 0.446457,-0.522047 0.990945,-0.944882 1.60984,-1.26142 0.701575,-0.36378 1.47756,-0.511417 2.2689,-0.517323 0.304724,-0.0023622 0.617717,0.0318898 0.92126,0.0744094 0.312992,0.046063 0.625984,0.102756 0.937795,0.166535l0.381496 0.0767717 0 4.76929 -0.618898 -0.178346c-0.388583,-0.113386 -0.785433,-0.205512 -1.18701,-0.26811 -0.416929,-0.0637795 -0.842126,-0.100394 -1.26614,-0.0968504 -0.392126,0.0011811 -0.777165,0.0661417 -1.14567,0.200787 -0.360236,0.131102 -0.693307,0.309449 -1.00039,0.531496 -0.249213,0.177165 -0.483071,0.376772 -0.692126,0.598819zm-21.1193 6.71811c0.0437008,0.859843 0.146457,1.75866 0.387402,2.57362 0.178346,0.6 0.442913,1.25433 0.855118,1.74685 0.298819,0.35315 0.660236,0.672047 1.09724,0.85748 0.40748,0.170079 0.835039,0.27874 1.27559,0.32126 0.435827,0.0413386 0.871654,0.0543307 1.3122,0.0507874 0.499606,-0.00354331 1.00157,-0.0507874 1.49528,-0.125197 0.615354,-0.092126 1.22717,-0.211417 1.83189,-0.350787 0.674409,-0.153543 1.35,-0.324803 2.01614,-0.507874l0.609449 -0.170079 0 4.02874 -0.328346 0.106299c-0.955512,0.302362 -1.92874,0.550394 -2.91732,0.726378 -0.88937,0.158268 -1.79646,0.255118 -2.70118,0.25748 -0.722835,0.00472441 -1.44567,-0.0318898 -2.16378,-0.106299 -0.741732,-0.0779528 -1.47283,-0.244488 -2.17559,-0.49252 -0.741732,-0.259843 -1.41614,-0.648425 -2.0185,-1.13976 -0.683858,-0.552756 -1.22008,-1.24843 -1.64646,-1.99961 -0.527953,-0.935433 -0.852756,-2.00433 -1.07244,-3.0437 -0.292913,-1.3937 -0.388583,-2.85472 -0.388583,-4.27559 0,-1.49173 0.111024,-3.03661 0.457087,-4.49882 0.261024,-1.09724 0.649606,-2.21811 1.2626,-3.17953 0.504331,-0.787795 1.13031,-1.50236 1.91811,-2.0374 0.709843,-0.483071 1.48937,-0.835039 2.3315,-1.04409 0.814961,-0.204331 1.65236,-0.290551 2.49449,-0.290551 0.766535,-0.0011811 1.52835,0.069685 2.27598,0.229134 0.785433,0.166535 1.52362,0.464173 2.2063,0.879921 0.753543,0.459449 1.37126,1.0937 1.86496,1.80354 0.61063,0.877559 0.999213,1.9122 1.25906,2.93268 0.348425,1.36772 0.457087,2.83819 0.46063,4.2437 0.0011811,0.328346 -0.00472441,0.655512 -0.00826772,0.981496 -0.00354331,0.362598 -0.0129921,0.725197 -0.0318898,1.08543l-0.023622 0.437008 -11.935 0zm-15.6496 -8.62677l-3.59291 0 0 -3.58228 3.60945 0 0.153543 -4.45866 4.38071 -1.96654 0 6.4252 4.86496 0 -0.535039 3.58228 -4.32992 0 0 12.672c0,0.335433 0.0212598,0.840945 0.168898,1.15039 0.0838583,0.174803 0.199606,0.296457 0.388583,0.360236 0.28937,0.0956693 0.649606,0.112205 0.951969,0.108661 0.51378,-0.00944882 1.03583,-0.0826772 1.53543,-0.187795 0.650787,-0.138189 1.29213,-0.3 1.92992,-0.485433l0.614173 -0.180709 0 3.88583 -0.329528 0.101575c-0.670866,0.21378 -1.36772,0.368504 -2.0622,0.49252 -0.816142,0.146457 -1.64291,0.217323 -2.47323,0.224409 -0.727559,0.00590551 -1.46457,-0.0649606 -2.16378,-0.256299 -0.647244,-0.173622 -1.2248,-0.480709 -1.70669,-0.934252 -0.516142,-0.479528 -0.84685,-1.10787 -1.06181,-1.76339 -0.270472,-0.829134 -0.34252,-1.76575 -0.34252,-2.63031l0 -12.5575zm-18.9461 1.89921l0 15.8587 -4.54843 0 0 -21.3402 3.50315 0 0.690945 2.15669c0.175984,-0.134646 0.35315,-0.262205 0.530315,-0.390945 0.516142,-0.368504 1.07126,-0.692126 1.63465,-0.983858 0.655512,-0.340157 1.34528,-0.607087 2.05748,-0.818504 0.765354,-0.227953 1.55551,-0.341339 2.35748,-0.347244 0.863386,-0.00708661 1.73031,0.080315 2.56417,0.304724 0.784252,0.212598 1.49764,0.565748 2.10827,1.08543 0.655512,0.553937 1.09724,1.28268 1.39724,2.06102 0.370866,0.970866 0.483071,2.06575 0.483071,3.09567l0 15.1772 -4.54961 0 0 -15.3307c0,-0.442913 -0.046063,-0.982677 -0.256299,-1.38661 -0.135827,-0.261024 -0.320079,-0.499606 -0.591732,-0.640157 -0.284646,-0.151181 -0.591732,-0.242126 -0.915354,-0.275197 -0.381496,-0.0401575 -0.764173,-0.0531496 -1.14803,-0.0484252 -0.920079,0.00826772 -1.8248,0.206693 -2.68583,0.516142 -0.927165,0.334252 -1.80709,0.779528 -2.6315,1.3063zm-10.5177 15.8587l-4.55197 0 0 -21.3402 4.55197 0 0 21.3402zm0.559843 -26.2701c0,0.493701 -0.129921,0.961417 -0.38622,1.39016 -0.244488,0.413386 -0.582283,0.744094 -1.00276,0.993307 -0.441732,0.258661 -0.928346,0.388583 -1.44567,0.388583 -0.519685,0 -1.0063,-0.12874 -1.44921,-0.388583 -0.420472,-0.249213 -0.757087,-0.579921 -1.00394,-0.993307 -0.255118,-0.42874 -0.383858,-0.896457 -0.383858,-1.39016 0,-0.494882 0.129921,-0.96378 0.382677,-1.39134 0.24685,-0.416929 0.583465,-0.752362 1.0063,-1.00157 0.442913,-0.25748 0.93189,-0.381496 1.44803,-0.381496 0.51378,0 1.00276,0.125197 1.44331,0.381496 0.425197,0.249213 0.761811,0.584646 1.00512,1.00157 0.255118,0.42874 0.38622,0.895276 0.38622,1.39134z"/>
   <path id="_194303352" class="fil0" d="M228.674 22.9146c-0.0165354,-0.964961 -0.0897638,-1.98661 -0.311811,-2.9126 -0.146457,-0.607087 -0.383858,-1.34055 -0.787795,-1.84016 -0.285827,-0.350787 -0.63189,-0.637795 -1.07362,-0.786614 -0.441732,-0.15 -0.909449,-0.201969 -1.37717,-0.198425 -0.532677,0.0023622 -1.08661,0.057874 -1.58858,0.244488 -0.47126,0.174803 -0.837402,0.484252 -1.13858,0.869291 -0.412205,0.523228 -0.660236,1.23071 -0.816142,1.86142 -0.218504,0.883465 -0.311811,1.84016 -0.355512,2.7626l7.44921 0zm-27.2173 11.126c-0.212598,0.317717 -0.401575,0.651969 -0.556299,0.998031 -0.191339,0.432283 -0.269291,0.895276 -0.274016,1.36181 -0.0023622,0.607087 0.108661,1.2 0.405118,1.74094 0.276378,0.506693 0.701575,0.874016 1.22953,1.13268 0.69685,0.341339 1.54843,0.434646 2.31969,0.435827 1.13031,0.00354331 2.42244,-0.0755906 3.50197,-0.422835 0.661417,-0.214961 1.33465,-0.555118 1.74213,-1.12441 0.381496,-0.530315 0.506693,-1.16693 0.506693,-1.80354 0,-0.370866 -0.0354331,-0.88937 -0.242126,-1.21535 -0.172441,-0.275197 -0.454724,-0.42874 -0.767717,-0.517323 -0.540945,-0.155906 -1.21063,-0.201969 -1.7752,-0.233858l-5.43071 -0.305906c-0.165354,-0.0106299 -0.330709,-0.0106299 -0.496063,-0.0271654 -0.0531496,-0.00590551 -0.106299,-0.011811 -0.162992,-0.0188976zm7.07717 -13.0913c0,-0.73937 -0.100394,-1.50709 -0.401575,-2.19449 -0.243307,-0.553937 -0.607087,-1.0063 -1.13386,-1.33228 -0.576378,-0.355512 -1.26496,-0.475984 -1.93937,-0.478346 -0.688583,-0.0023622 -1.4563,0.092126 -2.05748,0.437008 -0.511417,0.291732 -0.852756,0.722835 -1.06299,1.25551 -0.279921,0.715748 -0.356693,1.55315 -0.351969,2.31142 0.0011811,0.742913 0.101575,1.50709 0.401575,2.19449 0.244488,0.562205 0.612992,1.02165 1.13976,1.36063 0.572835,0.367323 1.25315,0.49252 1.93228,0.49252 0.690945,0 1.39843,-0.11811 1.98425,-0.49252 0.523228,-0.334252 0.877559,-0.79252 1.11142,-1.35472 0.288189,-0.690945 0.377953,-1.45748 0.377953,-2.19921zm-50.3457 1.96535c-0.0153543,-0.964961 -0.0874016,-1.98661 -0.31063,-2.9126 -0.145276,-0.607087 -0.381496,-1.34055 -0.788976,-1.84016 -0.284646,-0.350787 -0.63189,-0.637795 -1.07362,-0.786614 -0.440551,-0.15 -0.908268,-0.201969 -1.37362,-0.198425 -0.537402,0.0023622 -1.08661,0.057874 -1.58858,0.244488 -0.47126,0.174803 -0.839764,0.484252 -1.14213,0.869291 -0.408661,0.523228 -0.659055,1.23071 -0.814961,1.86142 -0.217323,0.883465 -0.312992,1.84252 -0.35315,2.7626l7.44567 0zm103.067 -5.31496l-3.59291 0 0 -3.5811 3.60591 0 0.154724 -4.46102 4.38071 -1.96535 0 6.42638 4.86732 0 -0.538583 3.5811 -4.32874 0 0 12.6732c0,0.335433 0.023622,0.840945 0.170079,1.14803 0.0850394,0.175984 0.199606,0.297638 0.388583,0.362598 0.290551,0.0968504 0.650787,0.112205 0.951969,0.108661 0.51378,-0.00944882 1.03346,-0.0826772 1.53543,-0.188976 0.649606,-0.137008 1.29331,-0.301181 1.92756,-0.485433l0.617717 -0.179528 0 3.88701 -0.33189 0.100394c-0.672047,0.21378 -1.36654,0.368504 -2.0622,0.49252 -0.814961,0.145276 -1.64291,0.217323 -2.47441,0.224409 -0.725197,0.00590551 -1.46102,-0.0661417 -2.1626,-0.25748 -0.644882,-0.172441 -1.22244,-0.480709 -1.70669,-0.933071 -0.516142,-0.483071 -0.84685,-1.10906 -1.06299,-1.7622 -0.270472,-0.831496 -0.338976,-1.76693 -0.338976,-2.63386l0 -12.5563zm-18.9461 1.90039l0 15.8575 -4.55079 0 0 -21.339 3.50551 0 0.687402 2.15669c0.175984,-0.135827 0.355512,-0.262205 0.531496,-0.390945 0.514961,-0.368504 1.07126,-0.689764 1.63465,-0.983858 0.656693,-0.341339 1.34528,-0.608268 2.0563,-0.818504 0.768898,-0.227953 1.55906,-0.341339 2.35984,-0.348425 0.863386,-0.00708661 1.73031,0.080315 2.56299,0.305906 0.786614,0.211417 1.49646,0.565748 2.10945,1.08543 0.654331,0.552756 1.09843,1.28268 1.39606,2.06102 0.373228,0.970866 0.484252,2.06575 0.484252,3.09449l0 15.1772 -4.55079 0 0 -15.3307c0,-0.442913 -0.0472441,-0.982677 -0.256299,-1.38543 -0.135827,-0.261024 -0.320079,-0.499606 -0.592913,-0.64252 -0.284646,-0.151181 -0.590551,-0.239764 -0.912992,-0.274016 -0.380315,-0.0389764 -0.766535,-0.0519685 -1.14685,-0.0484252 -0.92126,0.00944882 -1.82835,0.207874 -2.68819,0.517323 -0.925984,0.334252 -1.80472,0.779528 -2.62913,1.3063zm-21.1193 6.72756c0.0425197,0.858661 0.145276,1.75866 0.38622,2.57126 0.177165,0.602362 0.444094,1.25669 0.856299,1.74921 0.3,0.35315 0.659055,0.672047 1.09724,0.853937 0.405118,0.173622 0.832677,0.282283 1.27205,0.322441 0.438189,0.0437008 0.876378,0.0566929 1.31457,0.0519685 0.500787,-0.0023622 1.00157,-0.0519685 1.49528,-0.125197 0.616535,-0.0885827 1.22835,-0.212598 1.83189,-0.349606 0.676772,-0.153543 1.34882,-0.324803 2.0185,-0.509055l0.608268 -0.168898 0 4.02874 -0.328346 0.106299c-0.954331,0.302362 -1.9311,0.550394 -2.9185,0.725197 -0.88937,0.158268 -1.79764,0.253937 -2.70236,0.258661 -0.720472,0.00472441 -1.44331,-0.0318898 -2.16142,-0.106299 -0.742913,-0.0779528 -1.47165,-0.245669 -2.17559,-0.49252 -0.741732,-0.259843 -1.41614,-0.648425 -2.02087,-1.13976 -0.682677,-0.550394 -1.2189,-1.24843 -1.64291,-1.99961 -0.527953,-0.936614 -0.855118,-2.00551 -1.07362,-3.0437 -0.295276,-1.39488 -0.388583,-2.85472 -0.388583,-4.27559 0,-1.49409 0.112205,-3.0378 0.457087,-4.49882 0.261024,-1.09606 0.648425,-2.21811 1.2626,-3.18071 0.50315,-0.786614 1.12795,-1.50118 1.91693,-2.03622 0.711024,-0.483071 1.49055,-0.83622 2.33268,-1.04528 0.816142,-0.204331 1.65354,-0.290551 2.49331,-0.290551 0.764173,0 1.52717,0.0708661 2.27362,0.229134 0.788976,0.168898 1.52717,0.465354 2.20984,0.879921 0.755906,0.46063 1.3689,1.0937 1.86496,1.80472 0.61063,0.876378 0.998031,1.91102 1.25906,2.9315 0.348425,1.3689 0.455906,2.83937 0.46063,4.24488 0,0.328346 -0.00472441,0.654331 -0.00826772,0.981496 -0.00354331,0.362598 -0.0141732,0.724016 -0.0330709,1.08543l-0.0224409 0.437008 -11.935 0zm-22.6783 6.71929c-0.35315,-0.287008 -0.649606,-0.625984 -0.862205,-1.03701 -0.294094,-0.571654 -0.421654,-1.19646 -0.413386,-1.83425 0.00472441,-0.572835 0.15,-1.11378 0.425197,-1.62165 0.264567,-0.488976 0.603543,-0.940157 0.993307,-1.34291 0.245669,-0.259843 0.50315,-0.510236 0.767717,-0.753543 -0.362598,-0.315354 -0.693307,-0.668504 -0.985039,-1.05118 -0.432283,-0.56811 -0.737008,-1.21181 -0.949606,-1.88386 -0.249213,-0.791339 -0.333071,-1.64764 -0.333071,-2.46969 -0.0023622,-1.41969 0.24685,-2.89016 0.988583,-4.13386 0.656693,-1.09606 1.59213,-1.91693 2.78976,-2.43189 1.29213,-0.556299 2.72126,-0.757087 4.12913,-0.753543 0.367323,0 0.741732,0.0129921 1.10551,0.0614173 0.298819,0.0377953 0.598819,0.0850394 0.894094,0.13937 0.279921,0.0507874 0.564567,0.0956693 0.848031,0.129921 0.337795,0.0437008 0.683858,0.0543307 1.02402,0.0543307l6.14882 0 0 3.54331 -3.22441 0c0.0944882,0.140551 0.187795,0.284646 0.274016,0.434646 0.250394,0.420472 0.438189,0.870472 0.577559,1.34173 0.152362,0.522047 0.218504,1.0689 0.217323,1.61457 -0.00472441,1.39134 -0.256299,2.80866 -0.975591,4.03346 -0.649606,1.10787 -1.57559,1.94055 -2.76378,2.49803 -1.28031,0.601181 -2.71181,0.823228 -4.12677,0.823228 -0.582283,0 -1.16575,-0.046063 -1.73622,-0.148819 -0.438189,-0.0779528 -0.866929,-0.183071 -1.28504,-0.316535 -0.232677,0.238583 -0.452362,0.493701 -0.64252,0.762992 -0.13937,0.200787 -0.245669,0.429921 -0.250394,0.674409 -0.00472441,0.178346 0.0129921,0.445276 0.120472,0.597638 0.092126,0.125197 0.298819,0.190157 0.445276,0.224409 0.42874,0.0909449 0.936614,0.113386 1.37598,0.135827l4.91102 0.229134c1.17283,0.0566929 2.42008,0.207874 3.52559,0.608268 0.966142,0.347244 1.77165,0.918898 2.32441,1.76575 0.618898,0.944882 0.797244,2.11654 0.793701,3.2126 -0.00354331,1.15394 -0.19252,2.33386 -0.753543,3.36496 -0.499606,0.922441 -1.21772,1.65472 -2.13898,2.19449 -0.972047,0.572835 -2.07165,0.92126 -3.18543,1.12559 -1.30866,0.242126 -2.65394,0.323622 -3.98386,0.323622 -1.39252,0 -2.82165,-0.151181 -4.14803,-0.585827 -1.14803,-0.375591 -2.16142,-0.992126 -2.91142,-1.92283 -0.785433,-0.974409 -1.08661,-2.16614 -1.08543,-3.38622 0,-0.607087 0.131102,-1.19646 0.348425,-1.76575 0.222047,-0.575197 0.533858,-1.11496 0.920079,-1.60748 0.240945,-0.307087 0.509055,-0.590551 0.806693,-0.84685zm-6.04843 2.41063l-4.54961 0 0 -21.339 4.54961 0 0 21.339zm0.559843 -26.2701c0,0.494882 -0.12874,0.961417 -0.383858,1.39134 -0.245669,0.412205 -0.582283,0.744094 -1.00394,0.992126 -0.441732,0.258661 -0.928346,0.389764 -1.44803,0.389764 -0.516142,0 -1.0063,-0.129921 -1.44803,-0.389764 -0.420472,-0.248031 -0.758268,-0.579921 -1.00394,-0.990945 -0.253937,-0.431102 -0.381496,-0.897638 -0.381496,-1.39252 0,-0.493701 0.127559,-0.962598 0.381496,-1.39016 0.245669,-0.419291 0.582283,-0.752362 1.00512,-1.00157 0.441732,-0.25748 0.933071,-0.381496 1.44685,-0.381496 0.516142,0 1.00394,0.125197 1.44449,0.381496 0.427559,0.249213 0.761811,0.582283 1.00748,1.00157 0.255118,0.42874 0.383858,0.894094 0.383858,1.39016zm-11.0787 26.2701l-4.55197 0 0 -28.6571 4.55197 0 0 28.6571zm-10.3193 0l-4.55197 0 0 -28.6571 4.55197 0 0 28.6571zm-20.9209 -9.12992c0.0448819,0.858661 0.146457,1.75866 0.387402,2.57126 0.178346,0.602362 0.444094,1.25669 0.85748,1.74921 0.297638,0.35315 0.657874,0.672047 1.09843,0.853937 0.405118,0.173622 0.831496,0.282283 1.27323,0.322441 0.435827,0.0437008 0.874016,0.0566929 1.31102,0.0519685 0.500787,-0.0023622 1.00276,-0.0519685 1.49528,-0.125197 0.617717,-0.0885827 1.22717,-0.212598 1.83307,-0.349606 0.676772,-0.153543 1.34646,-0.324803 2.01614,-0.509055l0.608268 -0.168898 0 4.02874 -0.327165 0.106299c-0.955512,0.302362 -1.92756,0.550394 -2.9185,0.725197 -0.88937,0.158268 -1.79528,0.253937 -2.70118,0.258661 -0.721654,0.00472441 -1.44449,-0.0318898 -2.1626,-0.106299 -0.741732,-0.0779528 -1.47283,-0.245669 -2.17323,-0.49252 -0.745276,-0.259843 -1.4185,-0.648425 -2.02323,-1.13976 -0.680315,-0.550394 -1.2189,-1.24843 -1.64173,-1.99961 -0.530315,-0.936614 -0.853937,-2.00551 -1.0748,-3.0437 -0.294094,-1.39488 -0.388583,-2.85472 -0.388583,-4.27559 0,-1.49409 0.113386,-3.0378 0.457087,-4.49882 0.262205,-1.09606 0.648425,-2.21811 1.26496,-3.18071 0.500787,-0.786614 1.12677,-1.50118 1.91575,-2.03622 0.709843,-0.483071 1.49055,-0.83622 2.33031,-1.04528 0.816142,-0.204331 1.65354,-0.290551 2.49567,-0.290551 0.765354,0 1.52717,0.0708661 2.27362,0.229134 0.787795,0.168898 1.52717,0.465354 2.20748,0.879921 0.757087,0.46063 1.37244,1.0937 1.86614,1.80472 0.61063,0.876378 0.998031,1.91102 1.25787,2.9315 0.350787,1.3689 0.458268,2.83937 0.46063,4.24488 0,0.328346 -0.0023622,0.654331 -0.00708661,0.981496 -0.00472441,0.362598 -0.0141732,0.724016 -0.0318898,1.08543l-0.0248031 0.437008 -11.935 0zm-15.6496 -8.62795l-3.59291 0 0 -3.5811 3.60945 0 0.153543 -4.46102 4.38071 -1.96535 0 6.42638 4.86614 0 -0.53622 3.5811 -4.32992 0 0 12.6732c0,0.335433 0.0224409,0.840945 0.17126,1.14803 0.0838583,0.175984 0.198425,0.297638 0.388583,0.362598 0.287008,0.0968504 0.650787,0.112205 0.950787,0.108661 0.512598,-0.00944882 1.03583,-0.0826772 1.53543,-0.188976 0.650787,-0.137008 1.29213,-0.301181 1.92874,-0.485433l0.615354 -0.179528 0 3.88701 -0.329528 0.100394c-0.672047,0.21378 -1.36772,0.368504 -2.0622,0.49252 -0.817323,0.145276 -1.64291,0.217323 -2.47441,0.224409 -0.725197,0.00590551 -1.46339,-0.0661417 -2.16378,-0.25748 -0.647244,-0.172441 -1.22244,-0.480709 -1.70669,-0.933071 -0.516142,-0.483071 -0.84685,-1.10906 -1.05945,-1.7622 -0.272835,-0.831496 -0.344882,-1.76693 -0.344882,-2.63386l0 -12.5563zm-18.9449 1.90039l0 15.8575 -4.54961 0 0 -21.339 3.50669 0 0.687402 2.15669c0.175984,-0.135827 0.354331,-0.262205 0.531496,-0.390945 0.516142,-0.368504 1.07008,-0.689764 1.63465,-0.983858 0.656693,-0.341339 1.34646,-0.608268 2.05748,-0.818504 0.766535,-0.227953 1.55551,-0.341339 2.35748,-0.348425 0.863386,-0.00708661 1.73031,0.080315 2.56417,0.305906 0.785433,0.211417 1.49646,0.565748 2.10827,1.08543 0.655512,0.552756 1.09961,1.28268 1.39724,2.06102 0.372047,0.970866 0.484252,2.06575 0.484252,3.09449l0 15.1772 -4.55197 0 0 -15.3307c0,-0.442913 -0.0448819,-0.982677 -0.256299,-1.38543 -0.135827,-0.261024 -0.320079,-0.499606 -0.590551,-0.64252 -0.287008,-0.151181 -0.592913,-0.239764 -0.916535,-0.274016 -0.381496,-0.0389764 -0.761811,-0.0519685 -1.14567,-0.0484252 -0.920079,0.00944882 -1.82717,0.207874 -2.68701,0.517323 -0.927165,0.334252 -1.80827,0.779528 -2.6315,1.3063zm-10.5177 15.8575l-4.55315 0 0 -21.339 4.55315 0 0 21.339zm0.558661 -26.2701c0,0.494882 -0.127559,0.961417 -0.383858,1.39134 -0.244488,0.412205 -0.584646,0.744094 -1.0063,0.992126 -0.440551,0.258661 -0.927165,0.389764 -1.44449,0.389764 -0.519685,0 -1.0063,-0.129921 -1.44921,-0.389764 -0.419291,-0.248031 -0.757087,-0.579921 -1.00157,-0.992126 -0.256299,-0.429921 -0.383858,-0.896457 -0.383858,-1.39134 0,-0.493701 0.12874,-0.962598 0.380315,-1.39016 0.248031,-0.419291 0.583465,-0.752362 1.00866,-1.00157 0.440551,-0.25748 0.930709,-0.381496 1.44567,-0.381496 0.514961,0 1.00276,0.125197 1.44331,0.381496 0.425197,0.249213 0.762992,0.582283 1.00866,1.00157 0.252756,0.42874 0.382677,0.894094 0.382677,1.39016z"/>
  </g>
 </g>
</svg>
